<?xml version="1.0" encoding="utf-8"?>
<!-- Generator: Adobe Illustrator 22.1.0, SVG Export Plug-In . SVG Version: 6.00 Build 0)  -->
<svg version="1.1" id="Layer_1" xmlns="http://www.w3.org/2000/svg" xmlns:xlink="http://www.w3.org/1999/xlink" x="0px" y="0px"
	 viewBox="0 0 1920 1080" style="enable-background:new 0 0 1920 1080;" xml:space="preserve">
<style type="text/css">
	.st0{fill:#599AD3;}
	.st1{fill:#FFFFFF;}
</style>
<g id="Background">
	<rect id="XMLID_4_" class="st0" width="1920" height="1080"/>
</g>
<g>
	<path class="st1" d="M402.2,585.8c-21.2,0-38.9-7.1-53.2-21.4c-14.1-14.3-21.2-32.1-21.2-53.4c0-21.3,7.1-39.1,21.2-53.2
		c14.1-14.4,31.9-21.6,53.2-21.6c21.6,0,39.1,7.8,52.6,23.4l-13.2,12.8c-10.3-12.4-23.4-18.6-39.4-18.6c-15.9,0-29.1,5.3-39.8,16
		c-10.5,10.5-15.8,24.3-15.8,41.2c0,16.9,5.3,30.7,15.8,41.2c10.7,10.7,23.9,16,39.8,16c16.7,0,31.1-7,43.4-21l13.4,13
		c-6.8,8.1-15.1,14.4-25,18.9C424.2,583.5,413.6,585.8,402.2,585.8z"/>
	<path class="st1" d="M467.8,533.6c0-15.1,4.7-27.5,14.2-37.4c9.6-9.9,21.7-14.8,36.2-14.8c14.5,0,26.5,4.9,36,14.8
		c9.6,9.9,14.4,22.3,14.4,37.4c0,15.2-4.8,27.7-14.4,37.4c-9.5,9.9-21.5,14.8-36,14.8c-14.5,0-26.6-4.9-36.2-14.8
		C472.6,561.1,467.8,548.6,467.8,533.6z M486.2,533.6c0,10.5,3.1,19.1,9.2,25.6c6.1,6.5,13.7,9.8,22.8,9.8c9.1,0,16.7-3.3,22.8-9.8
		c6.1-6.5,9.2-15.1,9.2-25.6c0-10.4-3.1-18.9-9.2-25.4c-6.3-6.7-13.9-10-22.8-10c-8.9,0-16.5,3.3-22.8,10
		C489.3,514.7,486.2,523.2,486.2,533.6z"/>
	<path class="st1" d="M626.4,585.8c-12.8,0-23.8-5.1-33-15.2c-9.1-10.3-13.6-22.6-13.6-37s4.5-26.7,13.6-37
		c9.2-10.1,20.2-15.2,33-15.2c7.2,0,13.8,1.5,19.7,4.6c5.9,3.1,10.5,7.1,13.7,12.2h0.8l-0.8-13.6v-45.2h18.4v143.2h-17.6V569h-0.8
		c-3.2,5.1-7.8,9.1-13.7,12.2C640.2,584.2,633.6,585.8,626.4,585.8z M629.4,569c9.1,0,16.5-3.3,22.2-9.8c6-6.5,9-15.1,9-25.6
		c0-10.3-3-18.7-9-25.4c-5.9-6.7-13.3-10-22.2-10c-8.8,0-16.2,3.3-22.2,10c-6,6.7-9,15.1-9,25.4c0,10.4,3,18.9,9,25.4
		C613.2,565.6,620.6,569,629.4,569z"/>
	<path class="st1" d="M743.6,585.8c-14.4,0-26.3-4.9-35.6-14.8c-9.3-9.9-14-22.3-14-37.4c0-14.9,4.5-27.4,13.6-37.3
		c9.1-9.9,20.7-14.9,34.8-14.9c14.5,0,26.1,4.7,34.7,14.1c8.6,9.4,12.9,22.6,12.9,39.5l-0.2,2h-77c0.3,9.6,3.5,17.3,9.6,23.2
		c6.1,5.9,13.5,8.8,22,8.8c11.7,0,20.9-5.9,27.6-17.6l16.4,8c-4.4,8.3-10.5,14.7-18.3,19.4S753.5,585.8,743.6,585.8z M714.2,521.8
		h56.2c-0.5-6.8-3.3-12.4-8.3-16.9c-5-4.5-11.7-6.7-20.1-6.7c-6.9,0-12.9,2.1-17.9,6.4C719.1,508.8,715.8,514.6,714.2,521.8z"/>
	<path class="st1" d="M858.6,585.8c-7.2,0-13.8-1.5-19.7-4.6c-5.9-3.1-10.5-7.1-13.7-12.2h-0.8v13.6h-17.6V439.4h18.4v45.2
		l-0.8,13.6h0.8c3.2-5.1,7.8-9.1,13.7-12.2c5.9-3.1,12.5-4.6,19.7-4.6c12.9,0,23.9,5.1,32.8,15.2c9.2,10.3,13.8,22.6,13.8,37
		c0,14.5-4.6,26.9-13.8,37C882.5,580.7,871.6,585.8,858.6,585.8z M855.6,569c8.8,0,16.2-3.3,22.2-10c6-6.5,9-15,9-25.4
		c0-10.3-3-18.7-9-25.4c-6-6.7-13.4-10-22.2-10c-8.9,0-16.4,3.3-22.4,10c-5.9,6.7-8.8,15.1-8.8,25.4c0,10.4,2.9,18.9,8.8,25.6
		C839.2,565.7,846.7,569,855.6,569z"/>
	<path class="st1" d="M939.4,439.4v143.2H921V439.4H939.4z"/>
	<path class="st1" d="M985.6,450.8c0,3.6-1.3,6.7-3.8,9.2c-2.5,2.5-5.6,3.8-9.2,3.8s-6.7-1.3-9.2-3.8c-2.5-2.5-3.8-5.6-3.8-9.2
		c0-3.6,1.3-6.7,3.8-9.2c2.5-2.5,5.6-3.8,9.2-3.8s6.7,1.3,9.2,3.8C984.4,444.1,985.6,447.2,985.6,450.8z M981.8,484.6v98h-18.4v-98
		H981.8z"/>
	<path class="st1" d="M1043.6,584.2c-8,0-14.6-2.5-19.9-7.4c-5.3-4.9-8-11.8-8.1-20.6v-54.8h-17.2v-16.8h17.2v-30h18.4v30h24v16.8
		h-24v48.8c0,6.5,1.3,11,3.8,13.3c2.5,2.3,5.4,3.5,8.6,3.5c1.5,0,2.9-0.2,4.3-0.5c1.4-0.3,2.7-0.8,3.9-1.3l5.8,16.4
		C1055.6,583.3,1050,584.2,1043.6,584.2z"/>
	<path class="st1" d="M1152,582.6h-79.2v-16l55.8-65.2h-54.2v-16.8h76.8v16l-55.8,65.2h56.6V582.6z"/>
	<path class="st1" d="M1297.6,565v17.6h-87.2v-18.4l35.4-35.8c11.9-12.1,20.1-21.2,24.6-27.3c4.5-6.1,6.8-12.4,6.8-19.1
		c0-6-2.3-11.1-7-15.4c-4.7-4.3-10.7-6.4-18-6.4c-6.3,0-11.7,1.9-16.2,5.6c-4.5,3.7-7.5,8.3-8.8,13.6l-16.8-6.8
		c2.7-8.4,7.8-15.5,15.4-21.3c7.6-5.8,16.5-8.7,26.8-8.7c12.4,0,22.7,3.8,31,11.4c8.3,7.6,12.4,16.9,12.4,28
		c0,13.2-7.3,27.5-21.8,42.8l-40,40.2H1297.6z"/>
	<path class="st1" d="M1315.2,514.2c0-20.8,5.1-37.9,15.4-51.4c10.3-13.5,23.5-20.2,39.6-20.2c16.1,0,29.3,6.8,39.6,20.4
		c10.3,13.5,15.4,30.5,15.4,51.2c0,20.5-5.1,37.7-15.4,51.4c-10.3,13.5-23.5,20.2-39.6,20.2c-16.1,0-29.3-6.7-39.6-20.2
		C1320.3,551.8,1315.2,534.7,1315.2,514.2z M1406.4,514.2c0-15.7-3.3-28.7-10-38.8c-6.5-10.1-15.3-15.2-26.2-15.2
		c-10.9,0-19.7,5.1-26.2,15.2c-6.7,10.1-10,23.1-10,38.8c0,15.7,3.3,28.7,10,39c6.5,10,15.3,15,26.2,15c10.9,0,19.7-5.1,26.2-15.2
		C1403.1,542.7,1406.4,529.8,1406.4,514.2z"/>
	<path class="st1" d="M1492,445.8v136.8h-18.4v-114l-26.6,11.6l-7-15.6l40.2-18.8H1492z"/>
	<path class="st1" d="M1559.6,532.6c-10.9,0-20.9-4.3-29.8-13c-8.7-8.9-13-19.3-13-31.2c0-12.4,4.7-23.1,14-32
		c9.3-9.2,20.3-13.8,32.8-13.8c13.2,0,24.3,4.5,33.4,13.6c9.1,9.1,13.6,19.8,13.6,32.2c0,11.1-4.5,23.7-13.4,37.8l-39.8,59.6
		l-14.8-10.2l33.8-46.8l-0.4-0.4C1571.7,531.2,1566.3,532.6,1559.6,532.6z M1592,488.2c0-7.7-2.8-14.3-8.4-19.8
		c-5.5-5.5-12.1-8.2-20-8.2c-7.9,0-14.5,2.7-20,8.2c-5.5,5.5-8.2,12.1-8.2,19.8c0,7.7,2.7,14.3,8.2,19.8c5.7,5.5,12.4,8.2,20,8.2
		c7.6,0,14.3-2.7,20-8.2C1589.2,502.6,1592,496,1592,488.2z"/>
</g>
</svg>
