<?xml version="1.0" encoding="utf-8"?>
<!-- Generator: Adobe Illustrator 22.1.0, SVG Export Plug-In . SVG Version: 6.00 Build 0)  -->
<svg version="1.1" id="Layer_1" xmlns="http://www.w3.org/2000/svg" xmlns:xlink="http://www.w3.org/1999/xlink" x="0px" y="0px"
	 viewBox="0 0 812 1080" style="enable-background:new 0 0 812 1080;" xml:space="preserve">
<style type="text/css">
	.st0{fill:#FFFFFF;}
</style>
<g id="MTC_Human">
	<g id="XMLID_1_">
		<circle id="XMLID_9_" class="st0" cx="259.5" cy="177.8" r="87.8"/>
		<circle id="XMLID_7_" class="st0" cx="552.2" cy="177.8" r="86.7"/>
		<path id="XMLID_2_" class="st0" d="M602.6,686.3c-25.3-69.2-20.7-190.5-19.6-222.4c1.1-31.9,14.2-42.8,14.2-42.8
			s17.4,5.5,26.4,13.1c8.7,7.6,40.6,48.2,43.9,75.8c3.3,27.5-5.5,65.7-13.1,81.2c-7.6,15.3-30.8,42.8-30.8,42.8l27.5,35.2
			c0,0,22.9-33,49.3-73.6c26.4-40.6,28.6-103,8.7-153.4c-19.6-50.4-53.7-98.7-130.5-137.1c-76.9-38.4-187.5-27.5-265.2-18.5
			c-83.4,9.5-138.2,53.7-180.4,94.3s-48.8,88.8-46.6,141.4s26.4,108.5,43.9,131.6c17.4,22.9,49.3,41.7,49.3,41.7l16.4-48.2
			c0,0-36.2-28.6-50.4-76.9c-14.2-48.2,1.1-85.6,14.2-110.6c13.1-25.3,40.6-31.9,40.6-31.9s19.6,16.4,24,41.7
			c4.4,25.3,2.2,80.1-1.1,117.2c-3.3,37.3-24,122.9-31.9,146.9c-7.6,24-52.6,131.6-61.3,146.9c-8.7,15.3-29.7,67.9-29.7,67.9
			L94.9,976c0,0,38.4,6.5,57,7.6c18.5,1.1,36.2,0,48.2-5.5c12-5.5,14.2-14.2,14.2-14.2s-1.1-10.9,7.6-58
			c8.7-47.1,34.1-92.1,59.1-120.5c25.1-28.3,50.4-26.4,65.7-18.5s16.4,18.5,18.5,38.4c2.2,19.6-3.3,64.6-6.5,83.4
			c-3.3,18.5-6.5,70-6.5,70s2.2,16.4,15.3,18.5c13.1,2.2,47.1,1.1,62.4,0c15.3-1.1,26.4-8.7,26.4-8.7s-12-58-17.4-110.6
			s12-87.8,26.4-94.3c14.4-6.5,25.3-6.5,46.1,10.9c20.7,17.4,40.6,52.6,52.6,83.4c12,30.8,35.2,118.3,35.2,118.3s43.9,2.2,68.9,0
			c25.3-2.2,47.1-17.4,47.1-17.4l-30.8-72.2C684.9,886.1,627.9,755.5,602.6,686.3z M433.1,556.8c-5.5,41.7-28.9,98.1-28.9,98.1
			s-11.7-29.7-15-38.4c-3.3-8.7-12.5-44.4-16.4-59.7c-3.8-15.3-8.7-63-8.7-74.7c0-11.4,5.5-36.8,9.3-47.7
			c3.8-10.9,12-15.3,16.9-19.1c4.9-3.8,13.9-3.3,13.9-3.3l10.4,7.6c0,0,15.3,10.9,18.5,39.5C436.4,487.9,438.5,515.1,433.1,556.8z"
			/>
	</g>
</g>
</svg>
